<svg width="24" height="24" viewBox="0 0 24 24" fill="none" xmlns="http://www.w3.org/2000/svg">
<path d="M1.09518 10.816C0.953772 10.8602 0.803192 10.8665 0.658605 10.834C0.514019 10.8016 0.380534 10.7316 0.271597 10.6312C0.16266 10.5307 0.0821197 10.4034 0.0380872 10.2619C-0.00594517 10.1204 -0.011914 9.96979 0.0207826 9.82526C0.511365 7.7843 2.37679 2.79312 9.1726 0.693835C12.1163 -0.215501 14.9393 -0.231024 17.5598 0.647353C19.7156 1.36698 21.1468 2.4931 21.8314 3.0374C22.0053 3.175 22.1174 3.37607 22.1431 3.59636C22.1688 3.81665 22.1059 4.03813 21.9683 4.21206C21.9666 4.21421 21.9649 4.21636 21.9632 4.2185C21.8219 4.39297 21.6177 4.50493 21.3946 4.53025C21.1715 4.55557 20.9474 4.49223 20.7706 4.35387C19.5303 3.37663 15.7665 0.407786 9.66634 2.29217C3.70995 4.13215 2.09195 8.43599 1.67229 10.1968C1.64042 10.3423 1.57004 10.4765 1.46851 10.5854C1.36698 10.6943 1.23804 10.774 1.09518 10.816L1.09518 10.816Z" fill="#009EE3"/>
<path d="M19.6178 22.376C19.5503 22.3978 19.4803 22.411 19.4095 22.4152C14.1004 22.7011 10.7225 18.2905 10.5838 18.1066L10.5581 18.0641C10.4735 17.9328 8.42958 14.8232 9.32936 12.3535C9.74265 11.2244 10.6567 10.4319 12.0538 10.0004C13.3532 9.59897 14.4164 9.71768 15.3214 10.3639C16.0635 10.8905 16.5391 11.6757 17 12.4339C17.9587 14.0083 18.5463 14.8093 20.3685 14.3471C21.1686 14.1441 21.5422 13.5185 21.7129 13.0312C22.1724 11.7052 21.7651 9.89755 20.6876 8.52991C19.2956 6.75561 15.4 3.80859 10.5935 5.29336C8.54092 5.92741 6.86113 7.17689 5.73621 8.89736C4.8043 10.3252 4.26255 12.0985 4.25067 13.7523C4.23197 16.8315 6.75558 20.8826 6.77951 20.9193C6.83762 21.0122 6.87685 21.1157 6.89497 21.2238C6.91308 21.3319 6.90973 21.4425 6.8851 21.5493C6.86047 21.6561 6.81504 21.757 6.75141 21.8463C6.68779 21.9355 6.6072 22.0114 6.51426 22.0695C6.51168 22.0711 6.50909 22.0727 6.5065 22.0743C6.31608 22.193 6.08659 22.2321 5.86759 22.1831C5.64859 22.1341 5.45765 22.0009 5.33602 21.8123C5.22211 21.6271 2.52743 17.3077 2.54914 13.7489C2.57936 9.89142 4.92347 5.28771 10.0979 3.68927C12.4897 2.95043 15.0032 3.07461 17.3685 4.04441C19.2019 4.80067 20.8986 6.05259 22.0204 7.48211C23.4532 9.30681 23.958 11.6953 23.3057 13.5595C22.8708 14.8022 21.9706 15.6598 20.7742 15.9664C17.6561 16.7595 16.4346 14.7625 15.5437 13.3057C14.6289 11.8123 14.1229 11.112 12.5418 11.6005C11.6736 11.8686 11.1388 12.2984 10.9138 12.9158C10.6077 13.7598 10.8978 14.8416 11.1951 15.6001C11.1982 15.608 11.2013 15.6159 11.2044 15.6238C11.5855 16.5878 12.1802 17.4528 12.9438 18.1537C14.1671 19.2834 16.438 20.8938 19.3324 20.7385C19.5536 20.7248 19.7713 20.7995 19.9375 20.9462C20.1037 21.093 20.2048 21.2997 20.2185 21.521C20.2187 21.5237 20.2188 21.5263 20.219 21.529C20.2258 21.7166 20.1706 21.9013 20.0619 22.0544C19.9532 22.2075 19.7971 22.3205 19.6178 22.376L19.6178 22.376Z" fill="#009EE3"/>
<path d="M13.1798 23.9617C13.0691 23.9959 12.9526 24.0074 12.8374 23.9954C12.7222 23.9833 12.6106 23.948 12.5094 23.8916C9.89089 22.408 8.05265 20.4126 6.72894 17.6158L6.72361 17.5985C5.88936 15.7338 5.38716 12.8848 6.49494 10.4768C7.31276 8.70004 8.84788 7.45117 11.0499 6.77094C13.6544 5.96639 16.0795 6.55875 18.0698 8.47573C18.975 9.36049 19.7111 10.403 20.2419 11.5521C20.3266 11.7588 20.3264 11.9906 20.2415 12.1972C20.1566 12.4038 19.9937 12.5687 19.7882 12.6562C19.5827 12.7437 19.3509 12.7468 19.1431 12.6647C18.9354 12.5827 18.7682 12.4222 18.6779 12.2179C18.2284 11.2589 17.6078 10.3898 16.8465 9.65347C15.3124 8.19388 13.529 7.7623 11.5397 8.37681C9.82059 8.90785 8.63685 9.84664 8.03088 11.1675C7.15701 13.0686 7.60693 15.4426 8.25979 16.9036C9.42697 19.3771 11.0459 21.1317 13.3506 22.4352C13.4458 22.4889 13.5295 22.5608 13.5969 22.6468C13.6643 22.7329 13.7141 22.8313 13.7435 22.9366C13.7728 23.0419 13.7812 23.1519 13.768 23.2604C13.7548 23.3689 13.7204 23.4738 13.6667 23.569C13.6646 23.5727 13.6624 23.5765 13.6602 23.5802C13.5529 23.7625 13.3817 23.8985 13.1798 23.9617Z" fill="#009EE3"/>
</svg>
