<svg width="24" height="24" viewBox="0 0 24 24" fill="none" xmlns="http://www.w3.org/2000/svg">
<circle cx="12" cy="12" r="12" fill="#36B4EF"/>
<path d="M11.7256 9.11394L7.11308 13.7392C6.96205 13.8908 6.9623 14.1361 7.11386 14.2874C7.26541 14.4386 7.51089 14.4382 7.66205 14.2866L12 9.93666L16.338 14.2868C16.4891 14.4383 16.7345 14.4387 16.886 14.2876C16.962 14.2117 17 14.1124 17 14.013C17 13.9139 16.9623 13.815 16.8868 13.7393L12.2744 9.11394C12.2018 9.04096 12.103 9 12 9C11.897 9 11.7983 9.04107 11.7256 9.11394Z" fill="white"/>
<path d="M11.7256 9.11394L7.11308 13.7392C6.96205 13.8908 6.9623 14.1361 7.11386 14.2874C7.26541 14.4386 7.51089 14.4382 7.66205 14.2866L12 9.93666L16.338 14.2868C16.4891 14.4383 16.7345 14.4387 16.886 14.2876C16.962 14.2117 17 14.1124 17 14.013C17 13.9139 16.9623 13.815 16.8868 13.7393L12.2744 9.11394C12.2018 9.04096 12.103 9 12 9C11.897 9 11.7983 9.04107 11.7256 9.11394Z" stroke="white" stroke-width="1.3"/>
<path d="M11.7256 9.11394L7.11308 13.7392C6.96205 13.8908 6.9623 14.1361 7.11386 14.2874C7.26541 14.4386 7.51089 14.4382 7.66205 14.2866L12 9.93666L16.338 14.2868C16.4891 14.4383 16.7345 14.4387 16.886 14.2876C16.962 14.2117 17 14.1124 17 14.013C17 13.9139 16.9623 13.815 16.8868 13.7393L12.2744 9.11394C12.2018 9.04096 12.103 9 12 9C11.897 9 11.7983 9.04107 11.7256 9.11394Z" stroke="white" stroke-width="1.3"/>
<path d="M11.7256 9.11394L7.11308 13.7392C6.96205 13.8908 6.9623 14.1361 7.11386 14.2874C7.26541 14.4386 7.51089 14.4382 7.66205 14.2866L12 9.93666L16.338 14.2868C16.4891 14.4383 16.7345 14.4387 16.886 14.2876C16.962 14.2117 17 14.1124 17 14.013C17 13.9139 16.9623 13.815 16.8868 13.7393L12.2744 9.11394C12.2018 9.04096 12.103 9 12 9C11.897 9 11.7983 9.04107 11.7256 9.11394Z" stroke="white" stroke-width="1.3"/>
<path d="M11.7256 9.11394L7.11308 13.7392C6.96205 13.8908 6.9623 14.1361 7.11386 14.2874C7.26541 14.4386 7.51089 14.4382 7.66205 14.2866L12 9.93666L16.338 14.2868C16.4891 14.4383 16.7345 14.4387 16.886 14.2876C16.962 14.2117 17 14.1124 17 14.013C17 13.9139 16.9623 13.815 16.8868 13.7393L12.2744 9.11394C12.2018 9.04096 12.103 9 12 9C11.897 9 11.7983 9.04107 11.7256 9.11394Z" stroke="white" stroke-width="1.3"/>
</svg>
