<svg width="28" height="28" viewBox="0 0 28 28" fill="none" xmlns="http://www.w3.org/2000/svg">
<path d="M14 24.5C19.799 24.5 24.5 19.799 24.5 14C24.5 8.20101 19.799 3.5 14 3.5C8.20101 3.5 3.5 8.20101 3.5 14C3.5 19.799 8.20101 24.5 14 24.5Z" stroke="#009EE3" stroke-width="1.8" stroke-linecap="round" stroke-linejoin="round"/>
<path d="M17.2667 10.5C17.0553 10.1334 16.7483 9.83114 16.3783 9.62563C16.0084 9.42013 15.5896 9.31908 15.1667 9.33332H12.8333C12.2145 9.33332 11.621 9.57916 11.1834 10.0167C10.7458 10.4543 10.5 11.0478 10.5 11.6667C10.5 12.2855 10.7458 12.879 11.1834 13.3166C11.621 13.7542 12.2145 14 12.8333 14H15.1667C15.7855 14 16.379 14.2458 16.8166 14.6834C17.2542 15.121 17.5 15.7145 17.5 16.3333C17.5 16.9522 17.2542 17.5457 16.8166 17.9832C16.379 18.4208 15.7855 18.6667 15.1667 18.6667H12.8333C12.4104 18.6809 11.9916 18.5799 11.6217 18.3743C11.2517 18.1688 10.9447 17.8666 10.7333 17.5" stroke="#009EE3" stroke-width="1.8" stroke-linecap="round" stroke-linejoin="round"/>
<path d="M14 18.6667V21M14 7V9.33333V7Z" stroke="#009EE3" stroke-width="1.8" stroke-linecap="round" stroke-linejoin="round"/>
</svg>
