<svg width="55" height="55" viewBox="0 0 55 55" fill="none" xmlns="http://www.w3.org/2000/svg">
<path d="M27.5011 0C12.3131 0 0.000732422 12.3124 0.000732422 27.5004C0.000732422 41.3224 10.198 52.7628 23.4799 54.7089L54.7286 23.6107C52.839 10.2647 41.3687 0 27.5011 0Z" fill="#FEE187"/>
<path d="M46.9464 46.9461C53.3759 40.5167 55.9545 31.6958 54.6858 23.3469L43.1983 11.8592L11.916 43.1415L23.4809 54.7064C31.7903 55.9274 40.5513 53.3411 46.9464 46.9461Z" fill="#FFC61B"/>
<path d="M49.6605 27.4606C49.6605 39.6773 39.7575 49.5804 27.5407 49.5804L12.0568 27.4606L27.5407 5.3407C39.7574 5.3407 49.6605 15.2437 49.6605 27.4606Z" fill="#D48B07"/>
<path d="M5.42078 27.4606C5.42078 39.6773 15.3239 49.5804 27.5406 49.5804V5.3407C15.3238 5.3407 5.42078 15.2437 5.42078 27.4606Z" fill="#E0A300"/>
<path d="M27.5407 45.9934L15.9576 27.4606L27.5407 8.9277C37.7598 8.9277 46.0735 17.2414 46.0735 27.4606C46.0735 37.6797 37.7597 45.9934 27.5407 45.9934Z" fill="#FEE187"/>
<path d="M9.00781 27.4606C9.00781 37.6797 17.3215 45.9934 27.5407 45.9934V8.9277C17.3215 8.9277 9.00781 17.2414 9.00781 27.4606Z" fill="#FFEDB5"/>
<path d="M27.5406 43.6021L17.4521 27.4605L27.5406 11.319C36.4411 11.319 43.6821 18.56 43.6821 27.4605C43.6821 36.3611 36.441 43.6021 27.5406 43.6021Z" fill="#FFEDB5"/>
<path d="M11.3992 27.4605C11.3992 36.361 18.6401 43.6021 27.5407 43.6021V11.319C18.6401 11.319 11.3992 18.56 11.3992 27.4605Z" fill="white"/>
<path d="M29.59 26.854L28.7362 26.5843V17.3439C30.5865 17.8664 31.9469 19.5688 31.9469 21.584H34.3383C34.3383 18.2438 31.916 15.4606 28.7362 14.8937V12.3949H26.3449V14.8937C23.1651 15.4606 20.7428 18.2438 20.7428 21.584C20.7428 24.844 22.3847 27.0857 25.4912 28.0669L26.3449 28.3365V37.5769C24.4946 37.0544 23.1341 35.352 23.1341 33.3368H20.7428C20.7428 36.6769 23.1651 39.46 26.3449 40.027V42.5257H28.7362V40.027C31.916 39.4602 34.3383 36.677 34.3383 33.3368C34.3383 30.077 32.6964 27.8353 29.59 26.854ZM26.2114 25.7868C24.112 25.1236 23.1343 23.7882 23.1343 21.5841C23.1343 19.5689 24.4947 17.8665 26.345 17.344V25.829L26.2114 25.7868ZM28.7363 37.577V29.0921L28.8699 29.1343C30.9692 29.7974 31.9469 31.1328 31.9469 33.3369C31.9469 35.3522 30.5865 37.0545 28.7363 37.577Z" fill="#FFC61B"/>
</svg>
