<svg width="16" height="16" viewBox="0 0 16 16" fill="none" xmlns="http://www.w3.org/2000/svg">
<path d="M6.86363 0.410892C3.43675 0.824011 0.721234 3.48977 0.220274 6.93185C0.139954 7.46737 0.139954 8.53057 0.220274 9.06593C0.732754 12.5922 3.52859 15.2579 7.07787 15.6099C9.47979 15.8471 11.9352 14.8755 13.5185 13.0589C14.0731 12.4202 14.5665 11.6285 14.8571 10.9171L14.9528 10.68L14.3676 10.1063C14.0425 9.78881 13.7672 9.52881 13.7481 9.52881C13.7328 9.52881 13.6601 9.70481 13.5913 9.92273C12.8414 12.2826 10.5811 13.9922 8.06075 14.1069C6.29371 14.1872 4.60715 13.5064 3.36411 12.2136C2.26651 11.0663 1.68507 9.61281 1.68507 7.99889C1.68507 6.72529 2.01019 5.65057 2.70619 4.60257C3.59739 3.26769 4.98939 2.33841 6.62251 1.99025C6.96299 1.91761 7.14267 1.90225 7.78907 1.90225C8.64955 1.90225 9.01291 1.95953 9.75499 2.20817C11.2504 2.70545 12.6158 3.91393 13.2928 5.33281C13.5566 5.88737 13.5835 5.81857 13.0326 6.01361C12.7688 6.10545 12.5507 6.19345 12.543 6.20865C12.5276 6.24305 15.1552 8.58369 15.182 8.55697C15.2051 8.53409 15.3542 7.79969 15.4192 7.40577C15.4384 7.27953 15.5416 6.71345 15.6486 6.14737C15.752 5.57793 15.84 5.09601 15.84 5.06929C15.84 5.03489 15.6985 5.06929 15.4116 5.17249C15.1784 5.25665 14.9718 5.31025 14.9564 5.29489C14.9411 5.27953 14.8915 5.16865 14.8456 5.05393C14.7996 4.93921 14.6697 4.66769 14.5587 4.45345C13.0672 1.62705 10.0227 0.028491 6.86363 0.410892Z" fill="#77C87F"/>
<path d="M7.3492 4.24322V4.73666L7.11592 4.80162C6.52312 4.9661 5.9876 5.37154 5.76968 5.81906C5.4676 6.44242 5.55928 7.18066 5.99912 7.65489C6.33192 8.01809 6.69912 8.22081 7.59784 8.54961C8.294 8.80593 8.55016 9.03153 8.55016 9.39489C8.554 9.63585 8.46984 9.77345 8.24424 9.89969C7.8044 10.1445 6.85976 10.0642 6.09864 9.71985C5.9572 9.65489 5.84248 9.60897 5.83864 9.61281C5.81576 9.64337 5.55176 10.7104 5.55176 10.7678C5.55176 10.8941 6.3244 11.1466 6.93624 11.2192L7.31112 11.2651V11.7547V12.2443H7.8084H8.30552V11.7165V11.1886L8.56552 11.1237C9.54472 10.8712 10.1489 10.1637 10.1527 9.26113C10.1566 8.54977 9.87736 8.07169 9.23864 7.68161C9.10856 7.60513 8.74152 7.43682 8.4164 7.30674C7.69352 7.0237 7.49848 6.91666 7.32632 6.7293C7.18104 6.56482 7.15032 6.35826 7.25368 6.16322C7.44104 5.79986 8.30168 5.73106 9.10488 6.0141C9.60968 6.1901 9.55624 6.22834 9.7244 5.58962C9.80472 5.2837 9.87352 5.03122 9.87352 5.02354C9.87352 5.0197 9.7932 4.97762 9.69384 4.93554C9.4644 4.83618 8.9748 4.7213 8.642 4.6869L8.382 4.66402V4.20882V3.75362H7.86552H7.3492V4.24322Z" fill="#77C87F"/>
</svg>
