<svg width="28" height="28" viewBox="0 0 28 28" fill="none" xmlns="http://www.w3.org/2000/svg">
<path d="M27.16 4.92809H0.84C0.376086 4.92809 0 5.30417 0 5.76809V22.2319C0 22.6958 0.376086 23.0719 0.84 23.0719H27.16C27.6239 23.0719 28 22.6958 28 22.2319V5.76809C28 5.30417 27.6239 4.92809 27.16 4.92809ZM26.32 21.3919H1.68V6.60809H26.32V21.3919Z" fill="white"/>
<path d="M24.2614 11.3051C22.8066 11.3051 21.623 10.1216 21.623 8.66671C21.623 8.20279 21.2469 7.82671 20.783 7.82671H7.21702C6.75311 7.82671 6.37702 8.20279 6.37702 8.66671C6.37702 10.1215 5.19347 11.3051 3.73862 11.3051C3.27471 11.3051 2.89862 11.6812 2.89862 12.1451V15.8549C2.89862 16.3189 3.27471 16.6949 3.73862 16.6949C5.19342 16.6949 6.37702 17.8785 6.37702 19.3333C6.37702 19.7972 6.75311 20.1733 7.21702 20.1733H20.783C21.2469 20.1733 21.623 19.7972 21.623 19.3333C21.623 17.8785 22.8066 16.6949 24.2614 16.6949C24.7253 16.6949 25.1014 16.3189 25.1014 15.8549V12.1451C25.1014 11.6812 24.7253 11.3051 24.2614 11.3051ZM23.4213 15.097C21.7126 15.4352 20.3632 16.7846 20.0249 18.4933H7.97504C7.63685 16.7846 6.28744 15.4352 4.57868 15.097V12.9031H4.57862C6.28733 12.5649 7.6368 11.2155 7.97499 9.50676H20.0249C20.3632 11.2155 21.7126 12.5649 23.4213 12.9031V15.097Z" fill="white"/>
<path d="M14.0002 10.3938C12.1624 10.3938 10.6674 11.8889 10.6674 13.7266C10.6674 15.5644 12.1625 17.0595 14.0002 17.0595C15.8379 17.0595 17.3329 15.5644 17.3329 13.7266C17.3329 11.8889 15.8379 10.3938 14.0002 10.3938ZM14.0002 15.3795C13.0888 15.3795 12.3474 14.6381 12.3474 13.7267C12.3474 12.8153 13.0889 12.0739 14.0002 12.0739C14.9115 12.0739 15.6529 12.8153 15.6529 13.7267C15.6529 14.638 14.9115 15.3795 14.0002 15.3795Z" fill="white"/>
</svg>
