<svg width="32" height="12" viewBox="0 0 32 12" fill="none" xmlns="http://www.w3.org/2000/svg">
<rect width="32" height="12" rx="5" fill="#FF9191"/>
<path d="M9.34845 8.83331H8.17657L5.89532 5.09113V8.83331H4.72345V3.14581H5.89532L8.18048 6.89581V3.14581H9.34845V8.83331ZM15.0438 6.11847C15.0438 6.67837 14.9448 7.16925 14.7469 7.59113C14.549 8.013 14.2651 8.33852 13.8953 8.56769C13.5281 8.79685 13.1063 8.91144 12.6297 8.91144C12.1583 8.91144 11.7378 8.79816 11.368 8.57159C10.9982 8.34503 10.7117 8.02212 10.5086 7.60284C10.3055 7.18097 10.2026 6.69659 10.2 6.14972V5.86847C10.2 5.30857 10.3003 4.81639 10.5008 4.39191C10.7039 3.96482 10.9891 3.638 11.3563 3.41144C11.7261 3.18227 12.1479 3.06769 12.6219 3.06769C13.0958 3.06769 13.5164 3.18227 13.8836 3.41144C14.2534 3.638 14.5386 3.96482 14.7391 4.39191C14.9422 4.81639 15.0438 5.30727 15.0438 5.86456V6.11847ZM13.8563 5.86066C13.8563 5.2643 13.7495 4.81118 13.5359 4.50128C13.3224 4.19139 13.0177 4.03644 12.6219 4.03644C12.2287 4.03644 11.9253 4.19008 11.7117 4.49738C11.4982 4.80206 11.3901 5.24998 11.3875 5.84113V6.11847C11.3875 6.6992 11.4943 7.14972 11.7078 7.47003C11.9214 7.79034 12.2287 7.9505 12.6297 7.9505C13.0229 7.9505 13.325 7.79685 13.5359 7.48956C13.7469 7.17967 13.8537 6.72915 13.8563 6.138V5.86066ZM17.9109 7.42316L19.2 3.14581H20.5047L18.5242 8.83331H17.3016L15.3289 3.14581H16.6297L17.9109 7.42316ZM25.6609 6.11847C25.6609 6.67837 25.562 7.16925 25.3641 7.59113C25.1662 8.013 24.8823 8.33852 24.5125 8.56769C24.1453 8.79685 23.7234 8.91144 23.2469 8.91144C22.7755 8.91144 22.355 8.79816 21.9852 8.57159C21.6154 8.34503 21.3289 8.02212 21.1258 7.60284C20.9227 7.18097 20.8198 6.69659 20.8172 6.14972V5.86847C20.8172 5.30857 20.9175 4.81639 21.118 4.39191C21.3211 3.96482 21.6063 3.638 21.9734 3.41144C22.3432 3.18227 22.7651 3.06769 23.2391 3.06769C23.713 3.06769 24.1336 3.18227 24.5008 3.41144C24.8706 3.638 25.1557 3.96482 25.3563 4.39191C25.5594 4.81639 25.6609 5.30727 25.6609 5.86456V6.11847ZM24.4734 5.86066C24.4734 5.2643 24.3667 4.81118 24.1531 4.50128C23.9396 4.19139 23.6349 4.03644 23.2391 4.03644C22.8458 4.03644 22.5425 4.19008 22.3289 4.49738C22.1154 4.80206 22.0073 5.24998 22.0047 5.84113V6.11847C22.0047 6.6992 22.1115 7.14972 22.325 7.47003C22.5386 7.79034 22.8458 7.9505 23.2469 7.9505C23.6401 7.9505 23.9422 7.79685 24.1531 7.48956C24.3641 7.17967 24.4708 6.72915 24.4734 6.138V5.86066ZM27.5867 7.08722H26.6492L26.5164 3.14581H27.7195L27.5867 7.08722ZM27.118 7.70441C27.3081 7.70441 27.4604 7.7604 27.575 7.87238C27.6922 7.98435 27.7508 8.12758 27.7508 8.30206C27.7508 8.47394 27.6922 8.61587 27.575 8.72784C27.4604 8.83982 27.3081 8.89581 27.118 8.89581C26.9305 8.89581 26.7781 8.83982 26.6609 8.72784C26.5464 8.61587 26.4891 8.47394 26.4891 8.30206C26.4891 8.13019 26.5464 7.98826 26.6609 7.87628C26.7781 7.7617 26.9305 7.70441 27.118 7.70441Z" fill="white"/>
</svg>
