<svg width="6" height="10" viewBox="0 0 6 10" fill="none" xmlns="http://www.w3.org/2000/svg">
<path d="M5.30785 4.78047L1.53898 1.09047C1.4155 0.969639 1.21558 0.969842 1.0923 1.09109C0.969122 1.21233 0.96944 1.40872 1.09294 1.52964L4.63747 5.00001L1.09281 8.47038C0.969329 8.59131 0.96901 8.78758 1.09217 8.90883C1.15397 8.96961 1.23493 9 1.31589 9C1.39664 9 1.47728 8.96981 1.53897 8.90945L5.30785 5.21954C5.36732 5.16145 5.4007 5.08239 5.4007 5.00001C5.4007 4.91764 5.36723 4.83867 5.30785 4.78047Z" fill="white"/>
<path d="M5.30785 4.78047L1.53898 1.09047C1.4155 0.969639 1.21558 0.969842 1.0923 1.09109C0.969122 1.21233 0.96944 1.40872 1.09294 1.52964L4.63747 5.00001L1.09281 8.47038C0.969329 8.59131 0.96901 8.78758 1.09217 8.90883C1.15397 8.96961 1.23493 9 1.31589 9C1.39664 9 1.47728 8.96981 1.53897 8.90945L5.30785 5.21954C5.36732 5.16145 5.4007 5.08239 5.4007 5.00001C5.4007 4.91764 5.36723 4.83867 5.30785 4.78047Z" stroke="white" stroke-width="0.4"/>
<path d="M5.30785 4.78047L1.53898 1.09047C1.4155 0.969639 1.21558 0.969842 1.0923 1.09109C0.969122 1.21233 0.96944 1.40872 1.09294 1.52964L4.63747 5.00001L1.09281 8.47038C0.969329 8.59131 0.96901 8.78758 1.09217 8.90883C1.15397 8.96961 1.23493 9 1.31589 9C1.39664 9 1.47728 8.96981 1.53897 8.90945L5.30785 5.21954C5.36732 5.16145 5.4007 5.08239 5.4007 5.00001C5.4007 4.91764 5.36723 4.83867 5.30785 4.78047Z" stroke="white" stroke-width="0.4"/>
<path d="M5.30785 4.78047L1.53898 1.09047C1.4155 0.969639 1.21558 0.969842 1.0923 1.09109C0.969122 1.21233 0.96944 1.40872 1.09294 1.52964L4.63747 5.00001L1.09281 8.47038C0.969329 8.59131 0.96901 8.78758 1.09217 8.90883C1.15397 8.96961 1.23493 9 1.31589 9C1.39664 9 1.47728 8.96981 1.53897 8.90945L5.30785 5.21954C5.36732 5.16145 5.4007 5.08239 5.4007 5.00001C5.4007 4.91764 5.36723 4.83867 5.30785 4.78047Z" stroke="white" stroke-width="0.4"/>
<path d="M5.30785 4.78047L1.53898 1.09047C1.4155 0.969639 1.21558 0.969842 1.0923 1.09109C0.969122 1.21233 0.96944 1.40872 1.09294 1.52964L4.63747 5.00001L1.09281 8.47038C0.969329 8.59131 0.96901 8.78758 1.09217 8.90883C1.15397 8.96961 1.23493 9 1.31589 9C1.39664 9 1.47728 8.96981 1.53897 8.90945L5.30785 5.21954C5.36732 5.16145 5.4007 5.08239 5.4007 5.00001C5.4007 4.91764 5.36723 4.83867 5.30785 4.78047Z" stroke="white" stroke-width="0.4"/>
</svg>
