<svg width="262" height="150" viewBox="0 0 262 150" fill="none" xmlns="http://www.w3.org/2000/svg">
<g clip-path="url(#clip0)">
<path d="M4.55894 45.024C3.9703 45.2083 3.34347 45.2343 2.7416 45.0992C2.13972 44.9642 1.58406 44.673 1.13059 44.2548C0.677112 43.8367 0.341842 43.3064 0.158547 42.7174C-0.0247482 42.1284 -0.0495947 41.5016 0.0865123 40.8999C2.12868 32.404 9.89394 11.627 38.1831 2.88825C50.4369 -0.897072 62.1884 -0.961693 73.0969 2.69476C82.0709 5.69037 88.0284 10.3781 90.8781 12.6439C91.6021 13.2167 92.069 14.0537 92.1759 14.9707C92.2828 15.8877 92.0211 16.8096 91.4483 17.5337C91.4412 17.5426 91.434 17.5516 91.4268 17.5605C90.8386 18.2867 89.9886 18.7528 89.0599 18.8582C88.1313 18.9636 87.1984 18.6999 86.4624 18.124C81.2994 14.056 65.6316 1.69751 40.2384 9.5417C15.4435 17.2011 8.70824 35.1168 6.96128 42.4466C6.82862 43.0521 6.53564 43.6108 6.113 44.0642C5.69037 44.5176 5.15363 44.8491 4.55895 45.0239L4.55894 45.024Z" fill="#009EE3"/>
<path d="M81.6635 93.1454C81.3825 93.2362 81.0911 93.291 80.7963 93.3084C58.6959 94.4987 44.6347 76.1384 44.0574 75.3729L43.9504 75.1962C43.5981 74.6496 35.09 61.7049 38.8355 51.4243C40.556 46.7243 44.3608 43.4254 50.1766 41.6288C55.5855 39.958 60.0116 40.4521 63.7789 43.1423C66.8679 45.3341 68.8477 48.6027 70.7665 51.759C74.7573 58.3127 77.203 61.647 84.7885 59.7233C88.1191 58.878 89.6742 56.274 90.3847 54.2455C92.2976 48.7258 90.6023 41.2008 86.117 35.5078C80.3224 28.1218 64.1059 15.8541 44.0976 22.0349C35.5535 24.6742 28.5609 29.8755 23.8782 37.0373C19.9989 42.981 17.7437 50.363 17.6943 57.2471C17.6165 70.0651 28.1216 86.9285 28.2212 87.0813C28.4631 87.4682 28.6264 87.8989 28.7018 88.3489C28.7772 88.7989 28.7633 89.2593 28.6607 89.704C28.5582 90.1486 28.3691 90.5686 28.1042 90.9402C27.8394 91.3117 27.5039 91.6274 27.117 91.8693C27.1063 91.876 27.0955 91.8827 27.0847 91.8893C26.292 92.3836 25.3367 92.5464 24.4251 92.3424C23.5135 92.1383 22.7186 91.5839 22.2123 90.7989C21.7381 90.0277 10.5209 72.0472 10.6113 57.2329C10.7371 41.1754 20.495 22.0113 42.0349 15.3574C51.9912 12.2819 62.4542 12.7988 72.3005 16.8358C79.9321 19.9839 86.9951 25.1953 91.6648 31.146C97.6291 38.7418 99.7304 48.6843 97.0153 56.4444C95.2051 61.6178 91.4577 65.1874 86.4774 66.4637C73.4974 69.7654 68.4126 61.4523 64.7041 55.3882C60.896 49.1713 58.7896 46.2565 52.208 48.2896C48.5941 49.406 46.3676 51.1949 45.4313 53.765C44.1571 57.2785 45.3647 61.7818 46.6021 64.9389C46.6149 64.9719 46.6277 65.0048 46.6406 65.0377C48.227 69.0504 50.7028 72.6512 53.8815 75.5691C58.9736 80.2714 68.4269 86.9753 80.4754 86.3289C81.3965 86.2717 82.3026 86.5827 82.9944 87.1935C83.6862 87.8044 84.1069 88.665 84.1642 89.5861C84.1648 89.5972 84.1655 89.6084 84.1661 89.6195C84.1944 90.4005 83.9646 91.1691 83.5122 91.8065C83.0598 92.4438 82.4101 92.9144 81.6635 93.1454L81.6635 93.1454Z" fill="#009EE3"/>
<path d="M54.8637 99.7461C54.403 99.8887 53.9182 99.9364 53.4386 99.8863C52.959 99.8361 52.4945 99.6893 52.0733 99.4546C41.173 93.2787 33.521 84.9722 28.0107 73.3298L27.9885 73.258C24.5157 65.4956 22.4252 53.6359 27.0366 43.6122C30.441 36.216 36.8313 31.0172 45.9977 28.1857C56.8395 24.8365 66.9345 27.3023 75.2197 35.2822C78.9878 38.9652 82.052 43.305 84.2617 48.0883C84.614 48.9489 84.6133 49.9136 84.2598 50.7737C83.9063 51.6338 83.2285 52.3202 82.3729 52.6844C81.5173 53.0486 80.5527 53.0614 79.6877 52.7199C78.8228 52.3785 78.127 51.7103 77.7509 50.8598C75.8799 46.8676 73.2965 43.2501 70.1275 40.1849C63.7412 34.109 56.3174 32.3124 48.0365 34.8705C40.8804 37.081 35.9528 40.989 33.4303 46.4872C29.7926 54.4012 31.6655 64.2833 34.3832 70.3651C39.2419 80.6619 45.9812 87.9657 55.5749 93.3916C55.9712 93.6151 56.3196 93.9145 56.6002 94.2727C56.8808 94.6308 57.0881 95.0407 57.2103 95.479C57.3325 95.9172 57.3672 96.3753 57.3123 96.8269C57.2575 97.2786 57.1143 97.7151 56.8908 98.1114C56.8819 98.1271 56.8729 98.1427 56.8638 98.1583C56.4169 98.9171 55.7042 99.483 54.8637 99.7461Z" fill="#009EE3"/>
<path d="M56.0116 64.9418C58.5018 64.9418 60.5204 62.9232 60.5204 60.433C60.5204 57.9428 58.5018 55.9241 56.0116 55.9241C53.5214 55.9241 51.5027 57.9428 51.5027 60.433C51.5027 62.9232 53.5214 64.9418 56.0116 64.9418Z" fill="#E6E6E6"/>
<path d="M137.31 115.49C137.217 115.49 137.124 115.483 137.032 115.469C136.793 115.434 136.564 115.351 136.357 115.227C136.15 115.102 135.97 114.937 135.827 114.743L133.351 111.385C133.207 111.19 133.104 110.97 133.046 110.736C132.988 110.501 132.976 110.258 133.012 110.019C133.048 109.781 133.131 109.552 133.256 109.345C133.38 109.138 133.544 108.958 133.739 108.815L154.913 93.1985C155.107 93.0552 155.328 92.9516 155.562 92.8936C155.796 92.8355 156.04 92.8242 156.278 92.8603C156.517 92.8963 156.746 92.979 156.953 93.1036C157.159 93.2283 157.339 93.3924 157.483 93.5866L159.959 96.9445C160.248 97.3368 160.37 97.8278 160.297 98.3097C160.225 98.7916 159.963 99.2249 159.571 99.5143L138.397 115.131C138.083 115.364 137.701 115.49 137.31 115.49Z" fill="#009EE3"/>
<path d="M152.348 102.916L149.107 98.5223C148.84 98.1603 148.728 97.707 148.795 97.2622C148.862 96.8174 149.103 96.4175 149.465 96.1504L161.865 85.2862C162.227 85.0191 162.68 84.9069 163.125 84.9741C163.57 85.0413 163.97 85.2824 164.237 85.6445L170.164 92.7243C170.431 93.0863 170.543 93.5396 170.476 93.9844C170.408 94.4293 170.167 94.8292 169.805 95.0962L154.72 103.275C154.358 103.542 153.904 103.654 153.46 103.587C153.015 103.52 152.615 103.279 152.348 102.916Z" fill="#2F2E41"/>
<path d="M172.272 149.904H168.1C167.612 149.903 167.145 149.71 166.801 149.365C166.456 149.021 166.263 148.554 166.262 148.066V113.29C166.263 112.803 166.456 112.335 166.801 111.991C167.145 111.647 167.612 111.453 168.1 111.452H172.272C172.759 111.453 173.226 111.647 173.571 111.991C173.915 112.335 174.109 112.803 174.109 113.29V148.066C174.109 148.554 173.915 149.021 173.571 149.365C173.226 149.71 172.759 149.903 172.272 149.904Z" fill="#009EE3"/>
<path d="M180.525 149.904H176.352C175.865 149.903 175.398 149.71 175.053 149.365C174.709 149.021 174.515 148.554 174.515 148.066V113.29C174.515 112.803 174.709 112.335 175.053 111.991C175.398 111.647 175.865 111.453 176.352 111.452H180.525C181.012 111.453 181.479 111.647 181.823 111.991C182.168 112.335 182.362 112.803 182.362 113.29V148.066C182.362 148.554 182.168 149.021 181.823 149.365C181.479 149.71 181.012 149.903 180.525 149.904Z" fill="#009EE3"/>
<path d="M219.648 149.367H128.043V150H219.648V149.367Z" fill="#3F3D56"/>
<path d="M172.51 70.4671C180.866 70.4671 187.64 63.6932 187.64 55.3371C187.64 46.981 180.866 40.207 172.51 40.207C164.154 40.207 157.38 46.981 157.38 55.3371C157.38 63.6932 164.154 70.4671 172.51 70.4671Z" fill="#009EE3"/>
<path d="M195.934 132.072L187.172 93.1591V83.9652C187.172 83.3653 186.933 82.7901 186.509 82.366C186.085 81.9418 185.51 81.7035 184.91 81.7035H176.517V75.7913C176.517 75.4943 176.458 75.2002 176.344 74.9258C176.231 74.6514 176.064 74.4021 175.854 74.1921C175.644 73.9821 175.395 73.8155 175.12 73.7019C174.846 73.5882 174.552 73.5297 174.255 73.5297H169.732C169.435 73.5297 169.141 73.5882 168.866 73.7019C168.592 73.8155 168.342 73.9821 168.132 74.1921C167.922 74.4021 167.756 74.6514 167.642 74.9258C167.529 75.2002 167.47 75.4943 167.47 75.7913V81.7035H159.076C158.477 81.7035 157.901 81.9418 157.477 82.366C157.053 82.7901 156.815 83.3653 156.815 83.9652V132.332C156.815 132.622 156.871 132.909 156.98 133.178C157.082 133.661 157.343 134.096 157.721 134.414C158.099 134.732 158.572 134.915 159.066 134.933L194.523 136.115C196.643 136.17 197.604 133.414 195.934 132.072Z" fill="#2F2E41"/>
<path d="M172.656 60.7124C171.721 60.6862 170.558 60.6536 169.662 59.999C169.395 59.7962 169.176 59.5375 169.02 59.2411C168.864 58.9446 168.774 58.6176 168.757 58.2829C168.741 58.0449 168.78 57.8063 168.871 57.5858C168.963 57.3654 169.104 57.169 169.283 57.0121C169.752 56.6168 170.436 56.5243 171.171 56.7405L170.408 51.1637L170.969 51.087L171.865 57.643L171.398 57.4285C170.855 57.1794 170.111 57.053 169.648 57.4439C169.535 57.5461 169.446 57.6732 169.39 57.8152C169.333 57.9572 169.31 58.1104 169.323 58.2628C169.336 58.5119 169.403 58.7551 169.52 58.9759C169.636 59.1968 169.798 59.39 169.996 59.5424C170.693 60.0517 171.62 60.1177 172.672 60.147L172.656 60.7124Z" fill="#2F2E41"/>
<path d="M167.638 51.6449H164.593V52.2103H167.638V51.6449Z" fill="#2F2E41"/>
<path d="M177.25 51.6449H174.205V52.2103H177.25V51.6449Z" fill="#2F2E41"/>
<path d="M159.261 45.5575C156.573 43.9287 155.307 40.8389 155.305 37.7831C155.304 36.1543 155.657 34.5448 156.341 33.0666C157.026 31.5884 158.024 30.2772 159.266 29.2242C162.035 26.8301 165.721 25.6585 169.322 25.3608C173.68 25.0006 178.009 25.9477 182.17 27.1565C186.626 28.4509 190.992 30.0795 195.553 30.9857C199.979 31.865 204.417 31.9518 208.774 30.6801C212.796 29.5065 216.879 27.4325 221.175 27.792C224.885 28.1024 227.703 30.5716 229.599 33.6222C233.362 39.6787 233.659 47.8078 239.071 52.8512C241.411 55.0318 244.459 56.0196 247.506 56.758C250.427 57.466 253.544 57.9196 256.225 59.3524C259.099 60.8888 260.84 63.7766 260.39 67.0855C259.879 70.8437 257.205 74.0783 254.261 76.286C251.161 78.5809 247.589 80.1555 243.804 80.8952C240.019 81.635 236.116 81.5212 232.381 80.5622C224.569 78.4898 218.221 72.4355 209.898 72.0561C205.255 71.8445 200.684 73.1094 196.041 72.8997C192.824 72.7543 189.361 71.5649 187.12 69.1722C186.044 68.0526 185.372 66.6066 185.21 65.0625C185.159 64.5237 184.311 64.5184 184.362 65.0625C184.68 68.4427 187.168 70.9395 190.138 72.3122C191.701 73.0294 193.369 73.4888 195.079 73.6726C197.351 73.9235 199.667 73.6861 201.929 73.4382C204.319 73.1761 206.713 72.8534 209.123 72.8822C211.322 72.9172 213.502 73.3048 215.579 74.0304C219.567 75.3981 223.159 77.6674 226.969 79.4347C230.656 81.1452 234.517 82.2057 238.601 82.232C242.537 82.2516 246.43 81.4166 250.013 79.7846C253.54 78.1776 256.855 75.7788 259.051 72.5451C261.11 69.5133 262.192 65.536 260.338 62.1419C258.886 59.4817 256.116 58.1355 253.323 57.3067C250.227 56.388 246.991 55.9683 243.96 54.8242C242.376 54.2549 240.919 53.3809 239.671 52.2515C238.332 50.9522 237.229 49.4302 236.411 47.7534C234.676 44.3686 233.789 40.651 232.328 37.1548C230.974 33.9162 229.122 30.652 226.138 28.6561C224.535 27.5954 222.672 26.9939 220.751 26.917C218.625 26.8208 216.513 27.3087 214.494 27.9235C212.356 28.5741 210.27 29.3868 208.116 29.9856C205.848 30.6172 203.496 30.8981 201.142 30.8184C196.302 30.6607 191.626 29.2228 187.044 27.7731C179.016 25.2334 170.088 22.5146 162.018 26.4294C158.873 27.9547 156.209 30.514 155.086 33.8745C154.092 36.848 154.23 40.3165 155.762 43.0867C156.488 44.4044 157.547 45.5088 158.833 46.2898C159.301 46.5734 159.727 45.8403 159.261 45.5575L159.261 45.5575Z" fill="#2F2E41"/>
<path d="M182.651 121.165H178.479C177.992 121.165 177.524 120.971 177.18 120.626C176.835 120.282 176.642 119.815 176.641 119.328V95.2257C176.642 94.7385 176.835 94.2714 177.18 93.9269C177.524 93.5825 177.992 93.3887 178.479 93.3881H182.651C183.139 93.3887 183.606 93.5825 183.95 93.9269C184.295 94.2714 184.488 94.7385 184.489 95.2257V119.328C184.488 119.815 184.295 120.282 183.95 120.626C183.606 120.971 183.139 121.165 182.651 121.165Z" fill="#009EE3"/>
<path d="M166.545 41.8139C166.638 42.4783 166.915 43.1036 167.344 43.6191C167.774 44.1346 168.338 44.5199 168.975 44.7316C169.612 44.9433 170.295 44.9728 170.947 44.817C171.6 44.6611 172.196 44.3261 172.668 43.8496L171.959 43.6624C172.355 44.6739 173.017 45.559 173.877 46.2231C174.736 46.8872 175.76 47.3055 176.838 47.4331C177.917 47.5607 179.01 47.393 180 46.9478C180.991 46.5026 181.842 45.7967 182.462 44.9054C182.782 44.4617 182.046 44.0379 181.73 44.4773C181.195 45.2262 180.469 45.818 179.628 46.1911C178.787 46.5642 177.861 46.705 176.947 46.5987C176.032 46.4925 175.164 46.1432 174.43 45.5871C173.697 45.031 173.126 44.2886 172.777 43.437C172.756 43.3666 172.717 43.3029 172.664 43.2518C172.611 43.2008 172.546 43.1641 172.475 43.1454C172.404 43.1266 172.329 43.1264 172.258 43.1447C172.187 43.1629 172.122 43.1992 172.068 43.2499C171.701 43.6217 171.234 43.8812 170.725 43.9983C170.215 44.1153 169.682 44.0849 169.189 43.9108C168.696 43.7366 168.262 43.4258 167.939 43.0147C167.616 42.6035 167.416 42.1088 167.363 41.5885C167.287 41.0502 166.47 41.2792 166.545 41.8139V41.8139Z" fill="#2F2E41"/>
<path d="M139.812 102.026L139.723 102.086L138.081 99.6637C137.957 99.4796 137.797 99.3219 137.611 99.1996C137.425 99.0773 137.217 98.9928 136.999 98.9509C136.78 98.909 136.556 98.9105 136.338 98.9553C136.12 99.0002 135.913 99.0875 135.729 99.2123L130.598 102.691C130.414 102.816 130.257 102.975 130.134 103.161C130.012 103.347 129.927 103.555 129.886 103.773C129.844 103.992 129.845 104.216 129.89 104.434C129.935 104.652 130.022 104.859 130.147 105.043L139.154 118.329C139.279 118.513 139.439 118.671 139.625 118.793C139.81 118.916 140.018 119 140.237 119.042C140.455 119.084 140.68 119.082 140.897 119.038C141.115 118.993 141.322 118.905 141.506 118.781L146.637 115.302C146.821 115.177 146.979 115.018 147.101 114.832C147.224 114.646 147.308 114.438 147.35 114.22C147.392 114.001 147.39 113.777 147.346 113.559C147.301 113.341 147.213 113.134 147.089 112.95L140.892 103.809L140.98 103.75L139.812 102.026Z" fill="#3F3D56"/>
<path d="M136.118 99.8411L135.469 100.281C135.549 100.333 135.614 100.405 135.659 100.489C135.704 100.573 135.728 100.667 135.728 100.762C135.729 100.858 135.706 100.952 135.661 101.036C135.617 101.12 135.552 101.192 135.473 101.246L132.628 103.175C132.549 103.228 132.458 103.262 132.363 103.272C132.269 103.282 132.173 103.268 132.084 103.233C131.996 103.197 131.917 103.14 131.856 103.067C131.795 102.994 131.753 102.907 131.733 102.814L131.127 103.224C130.994 103.315 130.88 103.43 130.792 103.564C130.703 103.699 130.642 103.849 130.612 104.007C130.582 104.165 130.583 104.327 130.615 104.484C130.648 104.642 130.711 104.791 130.801 104.924L139.506 117.765C139.596 117.899 139.712 118.013 139.846 118.101C139.98 118.189 140.131 118.25 140.289 118.281C140.447 118.311 140.609 118.31 140.766 118.278C140.924 118.245 141.073 118.182 141.206 118.092L146.196 114.709C146.465 114.527 146.651 114.245 146.712 113.926C146.773 113.608 146.705 113.277 146.523 113.009L137.817 100.168C137.727 100.035 137.612 99.9206 137.477 99.8321C137.343 99.7437 137.193 99.6826 137.035 99.6523C136.877 99.622 136.715 99.6231 136.557 99.6555C136.4 99.688 136.25 99.7511 136.117 99.8413L136.118 99.8411Z" fill="white"/>
</g>
<defs>
<clipPath id="clip0">
<rect width="261.29" height="150" fill="white"/>
</clipPath>
</defs>
</svg>
